<svg  viewBox="0 0 772 55" fill="none" xmlns="http://www.w3.org/2000/svg">
<mask id="path-1-outside-1_103:4" maskUnits="userSpaceOnUse" x="0.941406" y="0.109375" width="771" height="55" fill="black">
<rect fill="white" x="0.941406" y="0.109375" width="771" height="55"/>
<path d="M30.1719 30.3945H8.69141V53H1.94141V1.8125H33.6523V7.36719H8.69141V24.875H30.1719V30.3945Z"/>
<path d="M60.5117 32.293H48.4883V53H41.7031V1.8125H58.6484C64.4141 1.8125 68.8438 3.125 71.9375 5.75C75.0547 8.375 76.6133 12.1953 76.6133 17.2109C76.6133 20.3984 75.7461 23.1758 74.0117 25.543C72.3008 27.9102 69.9102 29.6797 66.8398 30.8516L78.8633 52.5781V53H71.6211L60.5117 32.293ZM48.4883 26.7734H58.8594C62.2109 26.7734 64.8711 25.9062 66.8398 24.1719C68.832 22.4375 69.8281 20.1172 69.8281 17.2109C69.8281 14.0469 68.8789 11.6211 66.9805 9.93359C65.1055 8.24609 62.3867 7.39062 58.8242 7.36719H48.4883V26.7734Z"/>
<path d="M125.48 29.0586C125.48 34.0742 124.637 38.457 122.949 42.207C121.262 45.9336 118.871 48.7812 115.777 50.75C112.684 52.7188 109.074 53.7031 104.949 53.7031C100.918 53.7031 97.3438 52.7188 94.2266 50.75C91.1094 48.7578 88.6836 45.9336 86.9492 42.2773C85.2383 38.5977 84.3594 34.3438 84.3125 29.5156V25.8242C84.3125 20.9023 85.168 16.5547 86.8789 12.7812C88.5898 9.00781 91.0039 6.125 94.1211 4.13281C97.2617 2.11719 100.848 1.10938 104.879 1.10938C108.98 1.10938 112.59 2.10547 115.707 4.09766C118.848 6.06641 121.262 8.9375 122.949 12.7109C124.637 16.4609 125.48 20.832 125.48 25.8242V29.0586ZM118.766 25.7539C118.766 19.6836 117.547 15.0312 115.109 11.7969C112.672 8.53906 109.262 6.91016 104.879 6.91016C100.613 6.91016 97.25 8.53906 94.7891 11.7969C92.3516 15.0312 91.0977 19.5312 91.0273 25.2969V29.0586C91.0273 34.9414 92.2578 39.5703 94.7188 42.9453C97.2031 46.2969 100.613 47.9727 104.949 47.9727C109.309 47.9727 112.684 46.3906 115.074 43.2266C117.465 40.0391 118.695 35.4805 118.766 29.5508V25.7539Z"/>
<path d="M174.945 53H168.16L142.391 13.5547V53H135.605V1.8125H142.391L168.23 41.4336V1.8125H174.945V53Z"/>
<path d="M221.246 7.36719H204.793V53H198.078V7.36719H181.66V1.8125H221.246V7.36719Z"/>
<path d="M257.773 29.3398H235.59V47.4805H261.359V53H228.84V1.8125H261.008V7.36719H235.59V23.8203H257.773V29.3398Z"/>
<path d="M309.102 53H302.316L276.547 13.5547V53H269.762V1.8125H276.547L302.387 41.4336V1.8125H309.102V53Z"/>
<path d="M321.09 53V1.8125H335.539C339.992 1.8125 343.93 2.79688 347.352 4.76562C350.773 6.73438 353.41 9.53516 355.262 13.168C357.137 16.8008 358.086 20.9727 358.109 25.6836V28.9531C358.109 33.7812 357.172 38.0117 355.297 41.6445C353.445 45.2773 350.785 48.0664 347.316 50.0117C343.871 51.957 339.852 52.9531 335.258 53H321.09ZM327.84 7.36719V47.4805H334.941C340.145 47.4805 344.188 45.8633 347.07 42.6289C349.977 39.3945 351.43 34.7891 351.43 28.8125V25.8242C351.43 20.0117 350.059 15.5 347.316 12.2891C344.598 9.05469 340.73 7.41406 335.715 7.36719H327.84Z"/>
<path d="M386.199 53V1.8125H400.648C405.102 1.8125 409.039 2.79688 412.461 4.76562C415.883 6.73438 418.52 9.53516 420.371 13.168C422.246 16.8008 423.195 20.9727 423.219 25.6836V28.9531C423.219 33.7812 422.281 38.0117 420.406 41.6445C418.555 45.2773 415.895 48.0664 412.426 50.0117C408.98 51.957 404.961 52.9531 400.367 53H386.199ZM392.949 7.36719V47.4805H400.051C405.254 47.4805 409.297 45.8633 412.18 42.6289C415.086 39.3945 416.539 34.7891 416.539 28.8125V25.8242C416.539 20.0117 415.168 15.5 412.426 12.2891C409.707 9.05469 405.84 7.41406 400.824 7.36719H392.949Z"/>
<path d="M462.383 29.3398H440.199V47.4805H465.969V53H433.449V1.8125H465.617V7.36719H440.199V23.8203H462.383V29.3398Z"/>
<path d="M491.316 44.0352L505.941 1.8125H513.324L494.34 53H488.363L469.414 1.8125H476.762L491.316 44.0352Z"/>
<path d="M549.148 29.3398H526.965V47.4805H552.734V53H520.215V1.8125H552.383V7.36719H526.965V23.8203H549.148V29.3398Z"/>
<path d="M567.922 47.4805H592.18V53H561.137V1.8125H567.922V47.4805Z"/>
<path d="M636.934 29.0586C636.934 34.0742 636.09 38.457 634.402 42.207C632.715 45.9336 630.324 48.7812 627.23 50.75C624.137 52.7188 620.527 53.7031 616.402 53.7031C612.371 53.7031 608.797 52.7188 605.68 50.75C602.562 48.7578 600.137 45.9336 598.402 42.2773C596.691 38.5977 595.812 34.3438 595.766 29.5156V25.8242C595.766 20.9023 596.621 16.5547 598.332 12.7812C600.043 9.00781 602.457 6.125 605.574 4.13281C608.715 2.11719 612.301 1.10938 616.332 1.10938C620.434 1.10938 624.043 2.10547 627.16 4.09766C630.301 6.06641 632.715 8.9375 634.402 12.7109C636.09 16.4609 636.934 20.832 636.934 25.8242V29.0586ZM630.219 25.7539C630.219 19.6836 629 15.0312 626.562 11.7969C624.125 8.53906 620.715 6.91016 616.332 6.91016C612.066 6.91016 608.703 8.53906 606.242 11.7969C603.805 15.0312 602.551 19.5312 602.48 25.2969V29.0586C602.48 34.9414 603.711 39.5703 606.172 42.9453C608.656 46.2969 612.066 47.9727 616.402 47.9727C620.762 47.9727 624.137 46.3906 626.527 43.2266C628.918 40.0391 630.148 35.4805 630.219 29.5508V25.7539Z"/>
<path d="M653.809 32.9609V53H647.059V1.8125H665.938C671.539 1.8125 675.922 3.24219 679.086 6.10156C682.273 8.96094 683.867 12.7461 683.867 17.457C683.867 22.4258 682.309 26.2578 679.191 28.9531C676.098 31.625 671.656 32.9609 665.867 32.9609H653.809ZM653.809 27.4414H665.938C669.547 27.4414 672.312 26.5977 674.234 24.9102C676.156 23.1992 677.117 20.7383 677.117 17.5273C677.117 14.4805 676.156 12.043 674.234 10.2148C672.312 8.38672 669.676 7.4375 666.324 7.36719H653.809V27.4414Z"/>
<path d="M721.414 29.3398H699.23V47.4805H725V53H692.48V1.8125H724.648V7.36719H699.23V23.8203H721.414V29.3398Z"/>
<path d="M752.176 32.293H740.152V53H733.367V1.8125H750.312C756.078 1.8125 760.508 3.125 763.602 5.75C766.719 8.375 768.277 12.1953 768.277 17.2109C768.277 20.3984 767.41 23.1758 765.676 25.543C763.965 27.9102 761.574 29.6797 758.504 30.8516L770.527 52.5781V53H763.285L752.176 32.293ZM740.152 26.7734H750.523C753.875 26.7734 756.535 25.9062 758.504 24.1719C760.496 22.4375 761.492 20.1172 761.492 17.2109C761.492 14.0469 760.543 11.6211 758.645 9.93359C756.77 8.24609 754.051 7.39062 750.488 7.36719H740.152V26.7734Z"/>
</mask>
<path d="M30.1719 30.3945H8.69141V53H1.94141V1.8125H33.6523V7.36719H8.69141V24.875H30.1719V30.3945Z" stroke="white" stroke-width="2" mask="url(#path-1-outside-1_103:4)"/>
<path d="M60.5117 32.293H48.4883V53H41.7031V1.8125H58.6484C64.4141 1.8125 68.8438 3.125 71.9375 5.75C75.0547 8.375 76.6133 12.1953 76.6133 17.2109C76.6133 20.3984 75.7461 23.1758 74.0117 25.543C72.3008 27.9102 69.9102 29.6797 66.8398 30.8516L78.8633 52.5781V53H71.6211L60.5117 32.293ZM48.4883 26.7734H58.8594C62.2109 26.7734 64.8711 25.9062 66.8398 24.1719C68.832 22.4375 69.8281 20.1172 69.8281 17.2109C69.8281 14.0469 68.8789 11.6211 66.9805 9.93359C65.1055 8.24609 62.3867 7.39062 58.8242 7.36719H48.4883V26.7734Z" stroke="white" stroke-width="2" mask="url(#path-1-outside-1_103:4)"/>
<path d="M125.48 29.0586C125.48 34.0742 124.637 38.457 122.949 42.207C121.262 45.9336 118.871 48.7812 115.777 50.75C112.684 52.7188 109.074 53.7031 104.949 53.7031C100.918 53.7031 97.3438 52.7188 94.2266 50.75C91.1094 48.7578 88.6836 45.9336 86.9492 42.2773C85.2383 38.5977 84.3594 34.3438 84.3125 29.5156V25.8242C84.3125 20.9023 85.168 16.5547 86.8789 12.7812C88.5898 9.00781 91.0039 6.125 94.1211 4.13281C97.2617 2.11719 100.848 1.10938 104.879 1.10938C108.98 1.10938 112.59 2.10547 115.707 4.09766C118.848 6.06641 121.262 8.9375 122.949 12.7109C124.637 16.4609 125.48 20.832 125.48 25.8242V29.0586ZM118.766 25.7539C118.766 19.6836 117.547 15.0312 115.109 11.7969C112.672 8.53906 109.262 6.91016 104.879 6.91016C100.613 6.91016 97.25 8.53906 94.7891 11.7969C92.3516 15.0312 91.0977 19.5312 91.0273 25.2969V29.0586C91.0273 34.9414 92.2578 39.5703 94.7188 42.9453C97.2031 46.2969 100.613 47.9727 104.949 47.9727C109.309 47.9727 112.684 46.3906 115.074 43.2266C117.465 40.0391 118.695 35.4805 118.766 29.5508V25.7539Z" stroke="white" stroke-width="2" mask="url(#path-1-outside-1_103:4)"/>
<path d="M174.945 53H168.16L142.391 13.5547V53H135.605V1.8125H142.391L168.23 41.4336V1.8125H174.945V53Z" stroke="white" stroke-width="2" mask="url(#path-1-outside-1_103:4)"/>
<path d="M221.246 7.36719H204.793V53H198.078V7.36719H181.66V1.8125H221.246V7.36719Z" stroke="white" stroke-width="2" mask="url(#path-1-outside-1_103:4)"/>
<path d="M257.773 29.3398H235.59V47.4805H261.359V53H228.84V1.8125H261.008V7.36719H235.59V23.8203H257.773V29.3398Z" stroke="white" stroke-width="2" mask="url(#path-1-outside-1_103:4)"/>
<path d="M309.102 53H302.316L276.547 13.5547V53H269.762V1.8125H276.547L302.387 41.4336V1.8125H309.102V53Z" stroke="white" stroke-width="2" mask="url(#path-1-outside-1_103:4)"/>
<path d="M321.09 53V1.8125H335.539C339.992 1.8125 343.93 2.79688 347.352 4.76562C350.773 6.73438 353.41 9.53516 355.262 13.168C357.137 16.8008 358.086 20.9727 358.109 25.6836V28.9531C358.109 33.7812 357.172 38.0117 355.297 41.6445C353.445 45.2773 350.785 48.0664 347.316 50.0117C343.871 51.957 339.852 52.9531 335.258 53H321.09ZM327.84 7.36719V47.4805H334.941C340.145 47.4805 344.188 45.8633 347.07 42.6289C349.977 39.3945 351.43 34.7891 351.43 28.8125V25.8242C351.43 20.0117 350.059 15.5 347.316 12.2891C344.598 9.05469 340.73 7.41406 335.715 7.36719H327.84Z" stroke="white" stroke-width="2" mask="url(#path-1-outside-1_103:4)"/>
<path d="M386.199 53V1.8125H400.648C405.102 1.8125 409.039 2.79688 412.461 4.76562C415.883 6.73438 418.52 9.53516 420.371 13.168C422.246 16.8008 423.195 20.9727 423.219 25.6836V28.9531C423.219 33.7812 422.281 38.0117 420.406 41.6445C418.555 45.2773 415.895 48.0664 412.426 50.0117C408.98 51.957 404.961 52.9531 400.367 53H386.199ZM392.949 7.36719V47.4805H400.051C405.254 47.4805 409.297 45.8633 412.18 42.6289C415.086 39.3945 416.539 34.7891 416.539 28.8125V25.8242C416.539 20.0117 415.168 15.5 412.426 12.2891C409.707 9.05469 405.84 7.41406 400.824 7.36719H392.949Z" stroke="white" stroke-width="2" mask="url(#path-1-outside-1_103:4)"/>
<path d="M462.383 29.3398H440.199V47.4805H465.969V53H433.449V1.8125H465.617V7.36719H440.199V23.8203H462.383V29.3398Z" stroke="white" stroke-width="2" mask="url(#path-1-outside-1_103:4)"/>
<path d="M491.316 44.0352L505.941 1.8125H513.324L494.34 53H488.363L469.414 1.8125H476.762L491.316 44.0352Z" stroke="white" stroke-width="2" mask="url(#path-1-outside-1_103:4)"/>
<path d="M549.148 29.3398H526.965V47.4805H552.734V53H520.215V1.8125H552.383V7.36719H526.965V23.8203H549.148V29.3398Z" stroke="white" stroke-width="2" mask="url(#path-1-outside-1_103:4)"/>
<path d="M567.922 47.4805H592.18V53H561.137V1.8125H567.922V47.4805Z" stroke="white" stroke-width="2" mask="url(#path-1-outside-1_103:4)"/>
<path d="M636.934 29.0586C636.934 34.0742 636.09 38.457 634.402 42.207C632.715 45.9336 630.324 48.7812 627.23 50.75C624.137 52.7188 620.527 53.7031 616.402 53.7031C612.371 53.7031 608.797 52.7188 605.68 50.75C602.562 48.7578 600.137 45.9336 598.402 42.2773C596.691 38.5977 595.812 34.3438 595.766 29.5156V25.8242C595.766 20.9023 596.621 16.5547 598.332 12.7812C600.043 9.00781 602.457 6.125 605.574 4.13281C608.715 2.11719 612.301 1.10938 616.332 1.10938C620.434 1.10938 624.043 2.10547 627.16 4.09766C630.301 6.06641 632.715 8.9375 634.402 12.7109C636.09 16.4609 636.934 20.832 636.934 25.8242V29.0586ZM630.219 25.7539C630.219 19.6836 629 15.0312 626.562 11.7969C624.125 8.53906 620.715 6.91016 616.332 6.91016C612.066 6.91016 608.703 8.53906 606.242 11.7969C603.805 15.0312 602.551 19.5312 602.48 25.2969V29.0586C602.48 34.9414 603.711 39.5703 606.172 42.9453C608.656 46.2969 612.066 47.9727 616.402 47.9727C620.762 47.9727 624.137 46.3906 626.527 43.2266C628.918 40.0391 630.148 35.4805 630.219 29.5508V25.7539Z" stroke="white" stroke-width="2" mask="url(#path-1-outside-1_103:4)"/>
<path d="M653.809 32.9609V53H647.059V1.8125H665.938C671.539 1.8125 675.922 3.24219 679.086 6.10156C682.273 8.96094 683.867 12.7461 683.867 17.457C683.867 22.4258 682.309 26.2578 679.191 28.9531C676.098 31.625 671.656 32.9609 665.867 32.9609H653.809ZM653.809 27.4414H665.938C669.547 27.4414 672.312 26.5977 674.234 24.9102C676.156 23.1992 677.117 20.7383 677.117 17.5273C677.117 14.4805 676.156 12.043 674.234 10.2148C672.312 8.38672 669.676 7.4375 666.324 7.36719H653.809V27.4414Z" stroke="white" stroke-width="2" mask="url(#path-1-outside-1_103:4)"/>
<path d="M721.414 29.3398H699.23V47.4805H725V53H692.48V1.8125H724.648V7.36719H699.23V23.8203H721.414V29.3398Z" stroke="white" stroke-width="2" mask="url(#path-1-outside-1_103:4)"/>
<path d="M752.176 32.293H740.152V53H733.367V1.8125H750.312C756.078 1.8125 760.508 3.125 763.602 5.75C766.719 8.375 768.277 12.1953 768.277 17.2109C768.277 20.3984 767.41 23.1758 765.676 25.543C763.965 27.9102 761.574 29.6797 758.504 30.8516L770.527 52.5781V53H763.285L752.176 32.293ZM740.152 26.7734H750.523C753.875 26.7734 756.535 25.9062 758.504 24.1719C760.496 22.4375 761.492 20.1172 761.492 17.2109C761.492 14.0469 760.543 11.6211 758.645 9.93359C756.77 8.24609 754.051 7.39062 750.488 7.36719H740.152V26.7734Z" stroke="white" stroke-width="2" mask="url(#path-1-outside-1_103:4)"/>
</svg>
