<svg viewBox="0 0 762 54" fill="none" xmlns="http://www.w3.org/2000/svg" style="">
<mask id="path-1-outside-1" maskUnits="userSpaceOnUse" x="0.544006" y="0.239998" width="761" height="54" fill="black">
<path fill="white" width="761" height="54" d="M0.544006 0.239998 L761.544006 0.239998 L761.544006 54.239998 L0.544006 54.239998 Z" class="rgsqwFaa_0"></path>
<path d="M29.912 1.816V7.144H8.09601V24.064H25.808V29.392H8.09601V52H1.54401V1.816H29.912Z" class="rgsqwFaa_1"></path>
<path d="M64.2493 52L52.2973 31.48H44.3773V52H37.8253V1.816H54.0253C57.8173 1.816 61.0093 2.464 63.6013 3.76C66.2413 5.056 68.2093 6.808 69.5053 9.016C70.8013 11.224 71.4493 13.744 71.4493 16.576C71.4493 20.032 70.4413 23.08 68.4253 25.72C66.4573 28.36 63.4813 30.112 59.4973 30.976L72.0973 52H64.2493ZM44.3773 26.224H54.0253C57.5773 26.224 60.2413 25.36 62.0173 23.632C63.7933 21.856 64.6813 19.504 64.6813 16.576C64.6813 13.6 63.7933 11.296 62.0173 9.664C60.2893 8.032 57.6253 7.216 54.0253 7.216H44.3773V26.224Z" class="rgsqwFaa_2"></path>
<path d="M104.382 52.504C99.7259 52.504 95.4779 51.424 91.6379 49.264C87.7979 47.056 84.7499 44.008 82.4939 40.12C80.2859 36.184 79.1819 31.768 79.1819 26.872C79.1819 21.976 80.2859 17.584 82.4939 13.696C84.7499 9.76 87.7979 6.712 91.6379 4.552C95.4779 2.344 99.7259 1.24 104.382 1.24C109.086 1.24 113.358 2.344 117.198 4.552C121.038 6.712 124.062 9.736 126.27 13.624C128.478 17.512 129.582 21.928 129.582 26.872C129.582 31.816 128.478 36.232 126.27 40.12C124.062 44.008 121.038 47.056 117.198 49.264C113.358 51.424 109.086 52.504 104.382 52.504ZM104.382 46.816C107.886 46.816 111.03 46 113.814 44.368C116.646 42.736 118.854 40.408 120.438 37.384C122.07 34.36 122.886 30.856 122.886 26.872C122.886 22.84 122.07 19.336 120.438 16.36C118.854 13.336 116.67 11.008 113.886 9.376C111.102 7.744 107.934 6.928 104.382 6.928C100.83 6.928 97.6619 7.744 94.8779 9.376C92.0939 11.008 89.8859 13.336 88.2539 16.36C86.6699 19.336 85.8779 22.84 85.8779 26.872C85.8779 30.856 86.6699 34.36 88.2539 37.384C89.8859 40.408 92.0939 42.736 94.8779 44.368C97.7099 46 100.878 46.816 104.382 46.816Z" class="rgsqwFaa_3"></path>
<path d="M177.688 52H171.135L144.784 12.04V52H138.232V1.744H144.784L171.135 41.632V1.744H177.688V52Z" class="rgsqwFaa_4"></path>
<path d="M219.745 1.816V7.144H206.064V52H199.512V7.144H185.76V1.816H219.745Z" class="rgsqwFaa_5"></path>
<path d="M234.362 7.144V23.92H252.65V29.32H234.362V46.6H254.81V52H227.81V1.744H254.81V7.144H234.362Z" class="rgsqwFaa_6"></path>
<path d="M304.18 52H297.628L271.276 12.04V52H264.724V1.744H271.276L297.628 41.632V1.744H304.18V52Z" class="rgsqwFaa_7"></path>
<path d="M330.973 1.816C336.445 1.816 341.173 2.848 345.157 4.912C349.189 6.928 352.261 9.832 354.373 13.624C356.533 17.416 357.613 21.88 357.613 27.016C357.613 32.152 356.533 36.616 354.373 40.408C352.261 44.152 349.189 47.032 345.157 49.048C341.173 51.016 336.445 52 330.973 52H315.349V1.816H330.973ZM330.973 46.6C337.453 46.6 342.397 44.896 345.805 41.488C349.213 38.032 350.917 33.208 350.917 27.016C350.917 20.776 349.189 15.904 345.733 12.4C342.325 8.896 337.405 7.144 330.973 7.144H321.901V46.6H330.973Z" class="rgsqwFaa_8"></path>
<path d="M401.074 1.816C406.546 1.816 411.274 2.848 415.258 4.912C419.29 6.928 422.362 9.832 424.474 13.624C426.634 17.416 427.714 21.88 427.714 27.016C427.714 32.152 426.634 36.616 424.474 40.408C422.362 44.152 419.29 47.032 415.258 49.048C411.274 51.016 406.546 52 401.074 52H385.45V1.816H401.074ZM401.074 46.6C407.554 46.6 412.498 44.896 415.906 41.488C419.314 38.032 421.018 33.208 421.018 27.016C421.018 20.776 419.29 15.904 415.834 12.4C412.426 8.896 407.506 7.144 401.074 7.144H392.002V46.6H401.074Z" class="rgsqwFaa_9"></path>
<path d="M442.909 7.144V23.92H461.197V29.32H442.909V46.6H463.357V52H436.357V1.744H463.357V7.144H442.909Z" class="rgsqwFaa_10"></path>
<path d="M514.743 1.816L495.807 52H488.247L469.311 1.816H476.295L492.063 45.088L507.831 1.816H514.743Z" class="rgsqwFaa_11"></path>
<path d="M528.479 7.144V23.92H546.767V29.32H528.479V46.6H548.927V52H521.927V1.744H548.927V7.144H528.479Z" class="rgsqwFaa_12"></path>
<path d="M565.393 46.672H582.961V52H558.841V1.816H565.393V46.672Z" class="rgsqwFaa_13"></path>
<path d="M612.671 52.504C608.015 52.504 603.767 51.424 599.927 49.264C596.087 47.056 593.039 44.008 590.783 40.12C588.575 36.184 587.471 31.768 587.471 26.872C587.471 21.976 588.575 17.584 590.783 13.696C593.039 9.76 596.087 6.712 599.927 4.552C603.767 2.344 608.015 1.24 612.671 1.24C617.375 1.24 621.647 2.344 625.487 4.552C629.327 6.712 632.351 9.736 634.559 13.624C636.767 17.512 637.871 21.928 637.871 26.872C637.871 31.816 636.767 36.232 634.559 40.12C632.351 44.008 629.327 47.056 625.487 49.264C621.647 51.424 617.375 52.504 612.671 52.504ZM612.671 46.816C616.175 46.816 619.319 46 622.103 44.368C624.935 42.736 627.143 40.408 628.727 37.384C630.359 34.36 631.175 30.856 631.175 26.872C631.175 22.84 630.359 19.336 628.727 16.36C627.143 13.336 624.959 11.008 622.175 9.376C619.391 7.744 616.223 6.928 612.671 6.928C609.119 6.928 605.951 7.744 603.167 9.376C600.383 11.008 598.175 13.336 596.543 16.36C594.959 19.336 594.167 22.84 594.167 26.872C594.167 30.856 594.959 34.36 596.543 37.384C598.175 40.408 600.383 42.736 603.167 44.368C605.999 46 609.167 46.816 612.671 46.816Z" class="rgsqwFaa_14"></path>
<path d="M680.073 16.504C680.073 20.68 678.633 24.16 675.753 26.944C672.921 29.68 668.577 31.048 662.721 31.048H653.073V52H646.521V1.816H662.721C668.385 1.816 672.681 3.184 675.609 5.92C678.585 8.656 680.073 12.184 680.073 16.504ZM662.721 25.648C666.369 25.648 669.057 24.856 670.785 23.272C672.513 21.688 673.377 19.432 673.377 16.504C673.377 10.312 669.825 7.216 662.721 7.216H653.073V25.648H662.721Z" class="rgsqwFaa_15"></path>
<path d="M694.768 7.144V23.92H713.056V29.32H694.768V46.6H715.216V52H688.216V1.744H715.216V7.144H694.768Z" class="rgsqwFaa_16"></path>
<path d="M751.554 52L739.602 31.48H731.682V52H725.13V1.816H741.33C745.122 1.816 748.314 2.464 750.906 3.76C753.546 5.056 755.514 6.808 756.81 9.016C758.106 11.224 758.754 13.744 758.754 16.576C758.754 20.032 757.746 23.08 755.73 25.72C753.762 28.36 750.786 30.112 746.802 30.976L759.402 52H751.554ZM731.682 26.224H741.33C744.882 26.224 747.546 25.36 749.322 23.632C751.098 21.856 751.986 19.504 751.986 16.576C751.986 13.6 751.098 11.296 749.322 9.664C747.594 8.032 744.93 7.216 741.33 7.216H731.682V26.224Z" class="rgsqwFaa_17"></path>
</mask>
<path d="M29.912 1.816V7.144H8.09601V24.064H25.808V29.392H8.09601V52H1.54401V1.816H29.912Z" stroke="white" stroke-width="2" mask="url(#path-1-outside-1)" class="rgsqwFaa_18"></path>
<path d="M64.2493 52L52.2973 31.48H44.3773V52H37.8253V1.816H54.0253C57.8173 1.816 61.0093 2.464 63.6013 3.76C66.2413 5.056 68.2093 6.808 69.5053 9.016C70.8013 11.224 71.4493 13.744 71.4493 16.576C71.4493 20.032 70.4413 23.08 68.4253 25.72C66.4573 28.36 63.4813 30.112 59.4973 30.976L72.0973 52H64.2493ZM44.3773 26.224H54.0253C57.5773 26.224 60.2413 25.36 62.0173 23.632C63.7933 21.856 64.6813 19.504 64.6813 16.576C64.6813 13.6 63.7933 11.296 62.0173 9.664C60.2893 8.032 57.6253 7.216 54.0253 7.216H44.3773V26.224Z" stroke="white" stroke-width="2" mask="url(#path-1-outside-1)" class="rgsqwFaa_19"></path>
<path d="M104.382 52.504C99.7259 52.504 95.4779 51.424 91.6379 49.264C87.7979 47.056 84.7499 44.008 82.4939 40.12C80.2859 36.184 79.1819 31.768 79.1819 26.872C79.1819 21.976 80.2859 17.584 82.4939 13.696C84.7499 9.76 87.7979 6.712 91.6379 4.552C95.4779 2.344 99.7259 1.24 104.382 1.24C109.086 1.24 113.358 2.344 117.198 4.552C121.038 6.712 124.062 9.736 126.27 13.624C128.478 17.512 129.582 21.928 129.582 26.872C129.582 31.816 128.478 36.232 126.27 40.12C124.062 44.008 121.038 47.056 117.198 49.264C113.358 51.424 109.086 52.504 104.382 52.504ZM104.382 46.816C107.886 46.816 111.03 46 113.814 44.368C116.646 42.736 118.854 40.408 120.438 37.384C122.07 34.36 122.886 30.856 122.886 26.872C122.886 22.84 122.07 19.336 120.438 16.36C118.854 13.336 116.67 11.008 113.886 9.376C111.102 7.744 107.934 6.928 104.382 6.928C100.83 6.928 97.6619 7.744 94.8779 9.376C92.0939 11.008 89.8859 13.336 88.2539 16.36C86.6699 19.336 85.8779 22.84 85.8779 26.872C85.8779 30.856 86.6699 34.36 88.2539 37.384C89.8859 40.408 92.0939 42.736 94.8779 44.368C97.7099 46 100.878 46.816 104.382 46.816Z" stroke="white" stroke-width="2" mask="url(#path-1-outside-1)" class="rgsqwFaa_20"></path>
<path d="M177.688 52H171.135L144.784 12.04V52H138.232V1.744H144.784L171.135 41.632V1.744H177.688V52Z" stroke="white" stroke-width="2" mask="url(#path-1-outside-1)" class="rgsqwFaa_21"></path>
<path d="M219.745 1.816V7.144H206.064V52H199.512V7.144H185.76V1.816H219.745Z" stroke="white" stroke-width="2" mask="url(#path-1-outside-1)" class="rgsqwFaa_22"></path>
<path d="M234.362 7.144V23.92H252.65V29.32H234.362V46.6H254.81V52H227.81V1.744H254.81V7.144H234.362Z" stroke="white" stroke-width="2" mask="url(#path-1-outside-1)" class="rgsqwFaa_23"></path>
<path d="M304.18 52H297.628L271.276 12.04V52H264.724V1.744H271.276L297.628 41.632V1.744H304.18V52Z" stroke="white" stroke-width="2" mask="url(#path-1-outside-1)" class="rgsqwFaa_24"></path>
<path d="M330.973 1.816C336.445 1.816 341.173 2.848 345.157 4.912C349.189 6.928 352.261 9.832 354.373 13.624C356.533 17.416 357.613 21.88 357.613 27.016C357.613 32.152 356.533 36.616 354.373 40.408C352.261 44.152 349.189 47.032 345.157 49.048C341.173 51.016 336.445 52 330.973 52H315.349V1.816H330.973ZM330.973 46.6C337.453 46.6 342.397 44.896 345.805 41.488C349.213 38.032 350.917 33.208 350.917 27.016C350.917 20.776 349.189 15.904 345.733 12.4C342.325 8.896 337.405 7.144 330.973 7.144H321.901V46.6H330.973Z" stroke="white" stroke-width="2" mask="url(#path-1-outside-1)" class="rgsqwFaa_25"></path>
<path d="M401.074 1.816C406.546 1.816 411.274 2.848 415.258 4.912C419.29 6.928 422.362 9.832 424.474 13.624C426.634 17.416 427.714 21.88 427.714 27.016C427.714 32.152 426.634 36.616 424.474 40.408C422.362 44.152 419.29 47.032 415.258 49.048C411.274 51.016 406.546 52 401.074 52H385.45V1.816H401.074ZM401.074 46.6C407.554 46.6 412.498 44.896 415.906 41.488C419.314 38.032 421.018 33.208 421.018 27.016C421.018 20.776 419.29 15.904 415.834 12.4C412.426 8.896 407.506 7.144 401.074 7.144H392.002V46.6H401.074Z" stroke="white" stroke-width="2" mask="url(#path-1-outside-1)" class="rgsqwFaa_26"></path>
<path d="M442.909 7.144V23.92H461.197V29.32H442.909V46.6H463.357V52H436.357V1.744H463.357V7.144H442.909Z" stroke="white" stroke-width="2" mask="url(#path-1-outside-1)" class="rgsqwFaa_27"></path>
<path d="M514.743 1.816L495.807 52H488.247L469.311 1.816H476.295L492.063 45.088L507.831 1.816H514.743Z" stroke="white" stroke-width="2" mask="url(#path-1-outside-1)" class="rgsqwFaa_28"></path>
<path d="M528.479 7.144V23.92H546.767V29.32H528.479V46.6H548.927V52H521.927V1.744H548.927V7.144H528.479Z" stroke="white" stroke-width="2" mask="url(#path-1-outside-1)" class="rgsqwFaa_29"></path>
<path d="M565.393 46.672H582.961V52H558.841V1.816H565.393V46.672Z" stroke="white" stroke-width="2" mask="url(#path-1-outside-1)" class="rgsqwFaa_30"></path>
<path d="M612.671 52.504C608.015 52.504 603.767 51.424 599.927 49.264C596.087 47.056 593.039 44.008 590.783 40.12C588.575 36.184 587.471 31.768 587.471 26.872C587.471 21.976 588.575 17.584 590.783 13.696C593.039 9.76 596.087 6.712 599.927 4.552C603.767 2.344 608.015 1.24 612.671 1.24C617.375 1.24 621.647 2.344 625.487 4.552C629.327 6.712 632.351 9.736 634.559 13.624C636.767 17.512 637.871 21.928 637.871 26.872C637.871 31.816 636.767 36.232 634.559 40.12C632.351 44.008 629.327 47.056 625.487 49.264C621.647 51.424 617.375 52.504 612.671 52.504ZM612.671 46.816C616.175 46.816 619.319 46 622.103 44.368C624.935 42.736 627.143 40.408 628.727 37.384C630.359 34.36 631.175 30.856 631.175 26.872C631.175 22.84 630.359 19.336 628.727 16.36C627.143 13.336 624.959 11.008 622.175 9.376C619.391 7.744 616.223 6.928 612.671 6.928C609.119 6.928 605.951 7.744 603.167 9.376C600.383 11.008 598.175 13.336 596.543 16.36C594.959 19.336 594.167 22.84 594.167 26.872C594.167 30.856 594.959 34.36 596.543 37.384C598.175 40.408 600.383 42.736 603.167 44.368C605.999 46 609.167 46.816 612.671 46.816Z" stroke="white" stroke-width="2" mask="url(#path-1-outside-1)" class="rgsqwFaa_31"></path>
<path d="M680.073 16.504C680.073 20.68 678.633 24.16 675.753 26.944C672.921 29.68 668.577 31.048 662.721 31.048H653.073V52H646.521V1.816H662.721C668.385 1.816 672.681 3.184 675.609 5.92C678.585 8.656 680.073 12.184 680.073 16.504ZM662.721 25.648C666.369 25.648 669.057 24.856 670.785 23.272C672.513 21.688 673.377 19.432 673.377 16.504C673.377 10.312 669.825 7.216 662.721 7.216H653.073V25.648H662.721Z" stroke="white" stroke-width="2" mask="url(#path-1-outside-1)" class="rgsqwFaa_32"></path>
<path d="M694.768 7.144V23.92H713.056V29.32H694.768V46.6H715.216V52H688.216V1.744H715.216V7.144H694.768Z" stroke="white" stroke-width="2" mask="url(#path-1-outside-1)" class="rgsqwFaa_33"></path>
<path d="M751.554 52L739.602 31.48H731.682V52H725.13V1.816H741.33C745.122 1.816 748.314 2.464 750.906 3.76C753.546 5.056 755.514 6.808 756.81 9.016C758.106 11.224 758.754 13.744 758.754 16.576C758.754 20.032 757.746 23.08 755.73 25.72C753.762 28.36 750.786 30.112 746.802 30.976L759.402 52H751.554ZM731.682 26.224H741.33C744.882 26.224 747.546 25.36 749.322 23.632C751.098 21.856 751.986 19.504 751.986 16.576C751.986 13.6 751.098 11.296 749.322 9.664C747.594 8.032 744.93 7.216 741.33 7.216H731.682V26.224Z" stroke="white" stroke-width="2" mask="url(#path-1-outside-1)" class="rgsqwFaa_34"></path>
<style data-made-with="vivus-instant">.rgsqwFaa_0{stroke-dasharray:1630 1632;stroke-dashoffset:1631;animation:rgsqwFaa_draw 2000ms linear 0ms forwards;}.rgsqwFaa_1{stroke-dasharray:193 195;stroke-dashoffset:194;animation:rgsqwFaa_draw 2000ms linear 29ms forwards;}.rgsqwFaa_2{stroke-dasharray:275 277;stroke-dashoffset:276;animation:rgsqwFaa_draw 2000ms linear 58ms forwards;}.rgsqwFaa_3{stroke-dasharray:283 285;stroke-dashoffset:284;animation:rgsqwFaa_draw 2000ms linear 88ms forwards;}.rgsqwFaa_4{stroke-dasharray:303 305;stroke-dashoffset:304;animation:rgsqwFaa_draw 2000ms linear 117ms forwards;}.rgsqwFaa_5{stroke-dasharray:169 171;stroke-dashoffset:170;animation:rgsqwFaa_draw 2000ms linear 147ms forwards;}.rgsqwFaa_6{stroke-dasharray:232 234;stroke-dashoffset:233;animation:rgsqwFaa_draw 2000ms linear 176ms forwards;}.rgsqwFaa_7{stroke-dasharray:303 305;stroke-dashoffset:304;animation:rgsqwFaa_draw 2000ms linear 205ms forwards;}.rgsqwFaa_8{stroke-dasharray:286 288;stroke-dashoffset:287;animation:rgsqwFaa_draw 2000ms linear 235ms forwards;}.rgsqwFaa_9{stroke-dasharray:286 288;stroke-dashoffset:287;animation:rgsqwFaa_draw 2000ms linear 264ms forwards;}.rgsqwFaa_10{stroke-dasharray:232 234;stroke-dashoffset:233;animation:rgsqwFaa_draw 2000ms linear 294ms forwards;}.rgsqwFaa_11{stroke-dasharray:221 223;stroke-dashoffset:222;animation:rgsqwFaa_draw 2000ms linear 323ms forwards;}.rgsqwFaa_12{stroke-dasharray:232 234;stroke-dashoffset:233;animation:rgsqwFaa_draw 2000ms linear 352ms forwards;}.rgsqwFaa_13{stroke-dasharray:149 151;stroke-dashoffset:150;animation:rgsqwFaa_draw 2000ms linear 382ms forwards;}.rgsqwFaa_14{stroke-dasharray:283 285;stroke-dashoffset:284;animation:rgsqwFaa_draw 2000ms linear 411ms forwards;}.rgsqwFaa_15{stroke-dasharray:225 227;stroke-dashoffset:226;animation:rgsqwFaa_draw 2000ms linear 441ms forwards;}.rgsqwFaa_16{stroke-dasharray:232 234;stroke-dashoffset:233;animation:rgsqwFaa_draw 2000ms linear 470ms forwards;}.rgsqwFaa_17{stroke-dasharray:275 277;stroke-dashoffset:276;animation:rgsqwFaa_draw 2000ms linear 500ms forwards;}.rgsqwFaa_18{stroke-dasharray:193 195;stroke-dashoffset:194;animation:rgsqwFaa_draw 2000ms linear 529ms forwards;}.rgsqwFaa_19{stroke-dasharray:275 277;stroke-dashoffset:276;animation:rgsqwFaa_draw 2000ms linear 558ms forwards;}.rgsqwFaa_20{stroke-dasharray:283 285;stroke-dashoffset:284;animation:rgsqwFaa_draw 2000ms linear 588ms forwards;}.rgsqwFaa_21{stroke-dasharray:303 305;stroke-dashoffset:304;animation:rgsqwFaa_draw 2000ms linear 617ms forwards;}.rgsqwFaa_22{stroke-dasharray:169 171;stroke-dashoffset:170;animation:rgsqwFaa_draw 2000ms linear 647ms forwards;}.rgsqwFaa_23{stroke-dasharray:232 234;stroke-dashoffset:233;animation:rgsqwFaa_draw 2000ms linear 676ms forwards;}.rgsqwFaa_24{stroke-dasharray:303 305;stroke-dashoffset:304;animation:rgsqwFaa_draw 2000ms linear 705ms forwards;}.rgsqwFaa_25{stroke-dasharray:286 288;stroke-dashoffset:287;animation:rgsqwFaa_draw 2000ms linear 735ms forwards;}.rgsqwFaa_26{stroke-dasharray:286 288;stroke-dashoffset:287;animation:rgsqwFaa_draw 2000ms linear 764ms forwards;}.rgsqwFaa_27{stroke-dasharray:232 234;stroke-dashoffset:233;animation:rgsqwFaa_draw 2000ms linear 794ms forwards;}.rgsqwFaa_28{stroke-dasharray:221 223;stroke-dashoffset:222;animation:rgsqwFaa_draw 2000ms linear 823ms forwards;}.rgsqwFaa_29{stroke-dasharray:232 234;stroke-dashoffset:233;animation:rgsqwFaa_draw 2000ms linear 852ms forwards;}.rgsqwFaa_30{stroke-dasharray:149 151;stroke-dashoffset:150;animation:rgsqwFaa_draw 2000ms linear 882ms forwards;}.rgsqwFaa_31{stroke-dasharray:283 285;stroke-dashoffset:284;animation:rgsqwFaa_draw 2000ms linear 911ms forwards;}.rgsqwFaa_32{stroke-dasharray:225 227;stroke-dashoffset:226;animation:rgsqwFaa_draw 2000ms linear 941ms forwards;}.rgsqwFaa_33{stroke-dasharray:232 234;stroke-dashoffset:233;animation:rgsqwFaa_draw 2000ms linear 970ms forwards;}.rgsqwFaa_34{stroke-dasharray:275 277;stroke-dashoffset:276;animation:rgsqwFaa_draw 2000ms linear 1000ms forwards;}@keyframes rgsqwFaa_draw{100%{stroke-dashoffset:0;}}@keyframes rgsqwFaa_fade{0%{stroke-opacity:1;}94.44444444444444%{stroke-opacity:1;}100%{stroke-opacity:0;}}</style></svg>
