<svg viewBox="0 0 770 216" fill="none" xmlns="http://www.w3.org/2000/svg" style="">
<mask id="path-1-outside-1_1:33" maskUnits="userSpaceOnUse" x="-0.127991" y="27.24" width="770" height="173" fill="black">
<path fill="white" width="770" height="173" d="M-0.127991 27.24 L769.872009 27.24 L769.872009 200.24 L-0.127991 200.24 Z" class="zWqxdmkt_0"></path>
<path d="M39.096 28.816L38.16 33.928H16.416L13.392 51.136H31.104L30.168 56.248H12.456L8.42401 79H1.87201L10.8 28.816H39.096Z" class="zWqxdmkt_1"></path>
<path d="M63.2093 28.816C68.2013 28.816 71.9693 29.896 74.5133 32.056C77.0573 34.216 78.3293 37.096 78.3293 40.696C78.3293 41.272 78.2333 42.232 78.0413 43.576C77.4173 47.032 75.8813 50.08 73.4333 52.72C70.9853 55.36 67.6973 57.112 63.5693 57.976L72.4253 79H64.5773L56.2253 58.48H48.3773L44.7053 79H38.1533L47.0813 28.816H63.2093ZM71.2733 43.576C71.4173 42.712 71.4893 41.92 71.4893 41.2C71.4893 38.896 70.7213 37.12 69.1853 35.872C67.6973 34.624 65.3933 34 62.2733 34H52.6973L49.3133 53.224H58.9613C62.5133 53.224 65.3213 52.36 67.3853 50.632C69.4493 48.856 70.7453 46.504 71.2733 43.576Z" class="zWqxdmkt_2"></path>
<path d="M104.854 79.504C100.678 79.504 97.0059 78.64 93.8379 76.912C90.6699 75.136 88.1979 72.664 86.4219 69.496C84.6939 66.328 83.8299 62.704 83.8299 58.624C83.8299 52.96 85.1019 47.824 87.6459 43.216C90.2379 38.56 93.7899 34.912 98.3019 32.272C102.814 29.584 107.854 28.24 113.422 28.24C117.646 28.24 121.342 29.128 124.51 30.904C127.726 32.632 130.198 35.08 131.926 38.248C133.654 41.368 134.518 44.968 134.518 49.048C134.518 54.76 133.222 59.944 130.63 64.6C128.086 69.208 124.558 72.856 120.046 75.544C115.534 78.184 110.47 79.504 104.854 79.504ZM105.79 73.6C110.014 73.6 113.782 72.52 117.094 70.36C120.454 68.152 123.07 65.2 124.942 61.504C126.814 57.808 127.75 53.8 127.75 49.48C127.75 44.728 126.382 40.984 123.646 38.248C120.91 35.512 117.19 34.144 112.486 34.144C108.262 34.144 104.47 35.248 101.11 37.456C97.7979 39.616 95.2059 42.544 93.3339 46.24C91.5099 49.888 90.5979 53.872 90.5979 58.192C90.5979 62.944 91.9419 66.712 94.6299 69.496C97.3659 72.232 101.086 73.6 105.79 73.6Z" class="zWqxdmkt_3"></path>
<path d="M178.016 79H171.464L152.24 39.04L145.112 79H138.56L147.488 28.744H154.04L173.336 68.632L180.392 28.744H186.944L178.016 79Z" class="zWqxdmkt_4"></path>
<path d="M228.929 28.816L227.993 33.928H214.313L206.393 79H199.841L207.761 33.928H194.081L195.017 28.816H228.929Z" class="zWqxdmkt_5"></path>
<path d="M242.682 33.928L239.658 51.136H257.874L257.01 56.176H238.794L235.626 73.816H256.074L255.138 79H228.138L237.066 28.744H263.994L263.058 33.928H242.682Z" class="zWqxdmkt_6"></path>
<path d="M304.508 79H297.956L278.732 39.04L271.604 79H265.052L273.98 28.744H280.532L299.828 68.632L306.884 28.744H313.436L304.508 79Z" class="zWqxdmkt_7"></path>
<path d="M340.229 28.816C347.381 28.816 352.925 30.544 356.861 34C360.845 37.456 362.837 42.256 362.837 48.4C362.837 50.32 362.669 52.192 362.333 54.016C361.421 59.152 359.549 63.616 356.717 67.408C353.933 71.152 350.357 74.032 345.989 76.048C341.669 78.016 336.773 79 331.301 79H315.677L324.605 28.816H340.229ZM332.237 73.96C338.669 73.96 343.901 72.208 347.933 68.704C351.965 65.152 354.533 60.256 355.637 54.016C355.925 52.288 356.069 50.656 356.069 49.12C356.069 44.368 354.653 40.696 351.821 38.104C348.989 35.464 344.813 34.144 339.293 34.144H330.221L323.165 73.96H332.237Z" class="zWqxdmkt_8"></path>
<path d="M412.58 28.816C419.732 28.816 425.276 30.544 429.212 34C433.196 37.456 435.188 42.256 435.188 48.4C435.188 50.32 435.02 52.192 434.684 54.016C433.772 59.152 431.9 63.616 429.068 67.408C426.284 71.152 422.708 74.032 418.34 76.048C414.02 78.016 409.124 79 403.652 79H388.028L396.956 28.816H412.58ZM404.588 73.96C411.02 73.96 416.252 72.208 420.284 68.704C424.316 65.152 426.884 60.256 427.988 54.016C428.276 52.288 428.42 50.656 428.42 49.12C428.42 44.368 427.004 40.696 424.172 38.104C421.34 35.464 417.164 34.144 411.644 34.144H402.572L395.516 73.96H404.588Z" class="zWqxdmkt_9"></path>
<path d="M453.479 33.928L450.454 51.136H468.671L467.806 56.176H449.591L446.423 73.816H466.871L465.935 79H438.935L447.862 28.744H474.79L473.854 33.928H453.479Z" class="zWqxdmkt_10"></path>
<path d="M487.801 28.816L495.793 71.944L519.193 28.816H526.249L498.385 79H490.825L480.745 28.816H487.801Z" class="zWqxdmkt_11"></path>
<path d="M539.049 33.928L536.025 51.136H554.241L553.377 56.176H535.161L531.993 73.816H552.441L551.505 79H524.505L533.433 28.744H560.361L559.425 33.928H539.049Z" class="zWqxdmkt_12"></path>
<path d="M568.907 73.96H586.475L585.539 79H561.419L570.347 28.816H576.899L568.907 73.96Z" class="zWqxdmkt_13"></path>
<path d="M615.393 79.504C611.217 79.504 607.545 78.64 604.377 76.912C601.209 75.136 598.737 72.664 596.961 69.496C595.233 66.328 594.369 62.704 594.369 58.624C594.369 52.96 595.641 47.824 598.185 43.216C600.777 38.56 604.329 34.912 608.841 32.272C613.353 29.584 618.393 28.24 623.961 28.24C628.185 28.24 631.881 29.128 635.049 30.904C638.265 32.632 640.737 35.08 642.465 38.248C644.193 41.368 645.057 44.968 645.057 49.048C645.057 54.76 643.761 59.944 641.169 64.6C638.625 69.208 635.097 72.856 630.585 75.544C626.073 78.184 621.009 79.504 615.393 79.504ZM616.329 73.6C620.553 73.6 624.321 72.52 627.633 70.36C630.993 68.152 633.609 65.2 635.481 61.504C637.353 57.808 638.289 53.8 638.289 49.48C638.289 44.728 636.921 40.984 634.185 38.248C631.449 35.512 627.729 34.144 623.025 34.144C618.801 34.144 615.009 35.248 611.649 37.456C608.337 39.616 605.745 42.544 603.873 46.24C602.049 49.888 601.137 53.872 601.137 58.192C601.137 62.944 602.481 66.712 605.169 69.496C607.905 72.232 611.625 73.6 616.329 73.6Z" class="zWqxdmkt_14"></path>
<path d="M688.915 43.504C688.195 47.68 686.155 51.16 682.795 53.944C679.435 56.68 674.851 58.048 669.043 58.048H659.395L655.651 79H649.099L658.027 28.816H674.227C679.219 28.816 682.963 29.896 685.459 32.056C687.955 34.168 689.203 37 689.203 40.552C689.203 41.176 689.107 42.16 688.915 43.504ZM669.979 52.864C673.579 52.864 676.387 52.048 678.403 50.416C680.419 48.736 681.691 46.432 682.219 43.504C682.363 42.64 682.435 41.848 682.435 41.128C682.435 36.376 679.387 34 673.291 34H663.643L660.331 52.864H669.979Z" class="zWqxdmkt_15"></path>
<path d="M705.338 33.928L702.314 51.136H720.53L719.666 56.176H701.45L698.282 73.816H718.73L717.794 79H690.794L699.722 28.744H726.65L725.714 33.928H705.338Z" class="zWqxdmkt_16"></path>
<path d="M752.764 28.816C757.756 28.816 761.524 29.896 764.068 32.056C766.612 34.216 767.884 37.096 767.884 40.696C767.884 41.272 767.788 42.232 767.596 43.576C766.972 47.032 765.436 50.08 762.988 52.72C760.54 55.36 757.252 57.112 753.124 57.976L761.98 79H754.132L745.78 58.48H737.932L734.26 79H727.708L736.636 28.816H752.764ZM760.828 43.576C760.972 42.712 761.044 41.92 761.044 41.2C761.044 38.896 760.276 37.12 758.74 35.872C757.252 34.624 754.948 34 751.828 34H742.252L738.868 53.224H748.516C752.068 53.224 754.876 52.36 756.94 50.632C759.004 48.856 760.3 46.504 760.828 43.576Z" class="zWqxdmkt_17"></path>
<path d="M171.645 177.208L157.173 160.648L177.405 144.16H185.685L165.381 160.648L179.853 177.208H171.645Z" class="zWqxdmkt_18"></path>
<path d="M239.447 136.816L230.591 187H224.039L228.071 164.104H202.583L198.479 187H191.927L200.855 136.816H207.407L203.447 158.992H229.007L232.895 136.816H239.447Z" class="zWqxdmkt_19"></path>
<path d="M264.604 187.504C260.428 187.504 256.756 186.64 253.588 184.912C250.42 183.136 247.948 180.664 246.172 177.496C244.444 174.328 243.58 170.704 243.58 166.624C243.58 160.96 244.852 155.824 247.396 151.216C249.988 146.56 253.54 142.912 258.052 140.272C262.564 137.584 267.604 136.24 273.172 136.24C277.396 136.24 281.092 137.128 284.26 138.904C287.476 140.632 289.948 143.08 291.676 146.248C293.404 149.368 294.268 152.968 294.268 157.048C294.268 162.76 292.972 167.944 290.38 172.6C287.836 177.208 284.308 180.856 279.796 183.544C275.284 186.184 270.22 187.504 264.604 187.504ZM265.54 181.6C269.764 181.6 273.532 180.52 276.844 178.36C280.204 176.152 282.82 173.2 284.692 169.504C286.564 165.808 287.5 161.8 287.5 157.48C287.5 152.728 286.132 148.984 283.396 146.248C280.66 143.512 276.94 142.144 272.236 142.144C268.012 142.144 264.22 143.248 260.86 145.456C257.548 147.616 254.956 150.544 253.084 154.24C251.26 157.888 250.348 161.872 250.348 166.192C250.348 170.944 251.692 174.712 254.38 177.496C257.116 180.232 260.836 181.6 265.54 181.6Z" class="zWqxdmkt_20"></path>
<path d="M310.262 136.816L318.254 179.944L341.654 136.816H348.71L320.845 187H313.285L303.206 136.816H310.262Z" class="zWqxdmkt_21"></path>
<path d="M364.102 187.504C359.446 187.504 355.654 186.4 352.726 184.192C349.846 181.936 348.406 178.936 348.406 175.192C348.406 174.472 348.43 173.944 348.478 173.608H354.958C354.814 175.96 355.534 177.976 357.118 179.656C358.702 181.336 361.126 182.176 364.39 182.176C367.654 182.176 370.246 181.432 372.166 179.944C374.086 178.456 375.046 176.368 375.046 173.68C375.046 172.048 374.566 170.68 373.606 169.576C372.694 168.424 371.542 167.488 370.15 166.768C368.806 166 366.958 165.16 364.606 164.248C361.726 163.096 359.398 162.016 357.622 161.008C355.894 160 354.43 158.632 353.23 156.904C352.03 155.176 351.478 152.992 351.574 150.352C351.574 147.568 352.318 145.096 353.806 142.936C355.294 140.776 357.334 139.12 359.926 137.968C362.566 136.768 365.566 136.168 368.926 136.168C372.19 136.168 374.998 136.72 377.35 137.824C379.75 138.928 381.55 140.464 382.75 142.432C383.95 144.4 384.478 146.608 384.334 149.056H377.494C377.59 147.808 377.302 146.608 376.63 145.456C376.006 144.304 374.998 143.368 373.606 142.648C372.262 141.928 370.582 141.568 368.566 141.568C365.446 141.568 362.926 142.312 361.006 143.8C359.134 145.24 358.198 147.232 358.198 149.776C358.198 151.264 358.63 152.56 359.494 153.664C360.406 154.72 361.534 155.632 362.878 156.4C364.222 157.12 366.07 157.984 368.422 158.992C371.254 160.192 373.558 161.32 375.334 162.376C377.158 163.384 378.694 164.752 379.942 166.48C381.19 168.208 381.814 170.368 381.814 172.96C381.814 175.744 381.094 178.24 379.654 180.448C378.214 182.608 376.15 184.336 373.462 185.632C370.774 186.88 367.654 187.504 364.102 187.504Z" class="zWqxdmkt_22"></path>
<path d="M403.416 141.928L400.392 159.136H418.608L417.744 164.176H399.528L396.36 181.816H416.808L415.872 187H388.872L397.8 136.744H424.728L423.792 141.928H403.416Z" class="zWqxdmkt_23"></path>
<path d="M465.602 151.504C464.882 155.68 462.842 159.16 459.482 161.944C456.122 164.68 451.538 166.048 445.73 166.048H436.082L432.338 187H425.786L434.714 136.816H450.914C455.906 136.816 459.65 137.896 462.146 140.056C464.642 142.168 465.89 145 465.89 148.552C465.89 149.176 465.794 150.16 465.602 151.504ZM446.666 160.864C450.266 160.864 453.074 160.048 455.09 158.416C457.106 156.736 458.378 154.432 458.906 151.504C459.05 150.64 459.122 149.848 459.122 149.128C459.122 144.376 456.074 142 449.978 142H440.33L437.018 160.864H446.666Z" class="zWqxdmkt_24"></path>
<path d="M466.545 181.744C473.505 176.8 479.001 172.792 483.033 169.72C487.065 166.6 490.545 163.36 493.473 160C496.449 156.592 498.225 153.28 498.801 150.064C498.945 149.2 499.017 148.336 499.017 147.472C499.017 145.216 498.369 143.44 497.073 142.144C495.777 140.848 493.713 140.2 490.881 140.2C487.665 140.2 484.977 141.232 482.817 143.296C480.657 145.312 479.193 148.024 478.425 151.432H472.089C473.241 146.056 475.617 141.904 479.217 138.976C482.817 136.048 487.041 134.584 491.889 134.584C496.209 134.584 499.569 135.64 501.969 137.752C504.417 139.864 505.641 142.792 505.641 146.536C505.641 147.688 505.545 148.768 505.353 149.776C504.681 153.616 502.809 157.408 499.737 161.152C496.713 164.896 493.425 168.184 489.873 171.016C486.321 173.848 481.881 177.16 476.553 180.952H501.321L500.385 186.424H465.681L466.545 181.744Z" class="zWqxdmkt_25"></path>
<path d="M514.007 141.928L515.087 135.952H528.623L519.623 187H512.999L520.919 141.928H514.007Z" class="zWqxdmkt_26"></path>
<path d="M568.39 119.176L534.55 199.24H528.07L561.838 119.176H568.39Z" class="zWqxdmkt_27"></path>
<path d="M575.056 144.16H583.264L597.736 160.648L577.504 177.208H569.224L589.528 160.648L575.056 144.16Z" class="zWqxdmkt_28"></path>
</mask>
<path d="M39.096 28.816L38.16 33.928H16.416L13.392 51.136H31.104L30.168 56.248H12.456L8.42401 79H1.87201L10.8 28.816H39.096Z" stroke="white" stroke-width="2" mask="url(#path-1-outside-1_1:33)" class="zWqxdmkt_29"></path>
<path d="M63.2093 28.816C68.2013 28.816 71.9693 29.896 74.5133 32.056C77.0573 34.216 78.3293 37.096 78.3293 40.696C78.3293 41.272 78.2333 42.232 78.0413 43.576C77.4173 47.032 75.8813 50.08 73.4333 52.72C70.9853 55.36 67.6973 57.112 63.5693 57.976L72.4253 79H64.5773L56.2253 58.48H48.3773L44.7053 79H38.1533L47.0813 28.816H63.2093ZM71.2733 43.576C71.4173 42.712 71.4893 41.92 71.4893 41.2C71.4893 38.896 70.7213 37.12 69.1853 35.872C67.6973 34.624 65.3933 34 62.2733 34H52.6973L49.3133 53.224H58.9613C62.5133 53.224 65.3213 52.36 67.3853 50.632C69.4493 48.856 70.7453 46.504 71.2733 43.576Z" stroke="white" stroke-width="2" mask="url(#path-1-outside-1_1:33)" class="zWqxdmkt_30"></path>
<path d="M104.854 79.504C100.678 79.504 97.0059 78.64 93.8379 76.912C90.6699 75.136 88.1979 72.664 86.4219 69.496C84.6939 66.328 83.8299 62.704 83.8299 58.624C83.8299 52.96 85.1019 47.824 87.6459 43.216C90.2379 38.56 93.7899 34.912 98.3019 32.272C102.814 29.584 107.854 28.24 113.422 28.24C117.646 28.24 121.342 29.128 124.51 30.904C127.726 32.632 130.198 35.08 131.926 38.248C133.654 41.368 134.518 44.968 134.518 49.048C134.518 54.76 133.222 59.944 130.63 64.6C128.086 69.208 124.558 72.856 120.046 75.544C115.534 78.184 110.47 79.504 104.854 79.504ZM105.79 73.6C110.014 73.6 113.782 72.52 117.094 70.36C120.454 68.152 123.07 65.2 124.942 61.504C126.814 57.808 127.75 53.8 127.75 49.48C127.75 44.728 126.382 40.984 123.646 38.248C120.91 35.512 117.19 34.144 112.486 34.144C108.262 34.144 104.47 35.248 101.11 37.456C97.7979 39.616 95.2059 42.544 93.3339 46.24C91.5099 49.888 90.5979 53.872 90.5979 58.192C90.5979 62.944 91.9419 66.712 94.6299 69.496C97.3659 72.232 101.086 73.6 105.79 73.6Z" stroke="white" stroke-width="2" mask="url(#path-1-outside-1_1:33)" class="zWqxdmkt_31"></path>
<path d="M178.016 79H171.464L152.24 39.04L145.112 79H138.56L147.488 28.744H154.04L173.336 68.632L180.392 28.744H186.944L178.016 79Z" stroke="white" stroke-width="2" mask="url(#path-1-outside-1_1:33)" class="zWqxdmkt_32"></path>
<path d="M228.929 28.816L227.993 33.928H214.313L206.393 79H199.841L207.761 33.928H194.081L195.017 28.816H228.929Z" stroke="white" stroke-width="2" mask="url(#path-1-outside-1_1:33)" class="zWqxdmkt_33"></path>
<path d="M242.682 33.928L239.658 51.136H257.874L257.01 56.176H238.794L235.626 73.816H256.074L255.138 79H228.138L237.066 28.744H263.994L263.058 33.928H242.682Z" stroke="white" stroke-width="2" mask="url(#path-1-outside-1_1:33)" class="zWqxdmkt_34"></path>
<path d="M304.508 79H297.956L278.732 39.04L271.604 79H265.052L273.98 28.744H280.532L299.828 68.632L306.884 28.744H313.436L304.508 79Z" stroke="white" stroke-width="2" mask="url(#path-1-outside-1_1:33)" class="zWqxdmkt_35"></path>
<path d="M340.229 28.816C347.381 28.816 352.925 30.544 356.861 34C360.845 37.456 362.837 42.256 362.837 48.4C362.837 50.32 362.669 52.192 362.333 54.016C361.421 59.152 359.549 63.616 356.717 67.408C353.933 71.152 350.357 74.032 345.989 76.048C341.669 78.016 336.773 79 331.301 79H315.677L324.605 28.816H340.229ZM332.237 73.96C338.669 73.96 343.901 72.208 347.933 68.704C351.965 65.152 354.533 60.256 355.637 54.016C355.925 52.288 356.069 50.656 356.069 49.12C356.069 44.368 354.653 40.696 351.821 38.104C348.989 35.464 344.813 34.144 339.293 34.144H330.221L323.165 73.96H332.237Z" stroke="white" stroke-width="2" mask="url(#path-1-outside-1_1:33)" class="zWqxdmkt_36"></path>
<path d="M412.58 28.816C419.732 28.816 425.276 30.544 429.212 34C433.196 37.456 435.188 42.256 435.188 48.4C435.188 50.32 435.02 52.192 434.684 54.016C433.772 59.152 431.9 63.616 429.068 67.408C426.284 71.152 422.708 74.032 418.34 76.048C414.02 78.016 409.124 79 403.652 79H388.028L396.956 28.816H412.58ZM404.588 73.96C411.02 73.96 416.252 72.208 420.284 68.704C424.316 65.152 426.884 60.256 427.988 54.016C428.276 52.288 428.42 50.656 428.42 49.12C428.42 44.368 427.004 40.696 424.172 38.104C421.34 35.464 417.164 34.144 411.644 34.144H402.572L395.516 73.96H404.588Z" stroke="white" stroke-width="2" mask="url(#path-1-outside-1_1:33)" class="zWqxdmkt_37"></path>
<path d="M453.479 33.928L450.454 51.136H468.671L467.806 56.176H449.591L446.423 73.816H466.871L465.935 79H438.935L447.862 28.744H474.79L473.854 33.928H453.479Z" stroke="white" stroke-width="2" mask="url(#path-1-outside-1_1:33)" class="zWqxdmkt_38"></path>
<path d="M487.801 28.816L495.793 71.944L519.193 28.816H526.249L498.385 79H490.825L480.745 28.816H487.801Z" stroke="white" stroke-width="2" mask="url(#path-1-outside-1_1:33)" class="zWqxdmkt_39"></path>
<path d="M539.049 33.928L536.025 51.136H554.241L553.377 56.176H535.161L531.993 73.816H552.441L551.505 79H524.505L533.433 28.744H560.361L559.425 33.928H539.049Z" stroke="white" stroke-width="2" mask="url(#path-1-outside-1_1:33)" class="zWqxdmkt_40"></path>
<path d="M568.907 73.96H586.475L585.539 79H561.419L570.347 28.816H576.899L568.907 73.96Z" stroke="white" stroke-width="2" mask="url(#path-1-outside-1_1:33)" class="zWqxdmkt_41"></path>
<path d="M615.393 79.504C611.217 79.504 607.545 78.64 604.377 76.912C601.209 75.136 598.737 72.664 596.961 69.496C595.233 66.328 594.369 62.704 594.369 58.624C594.369 52.96 595.641 47.824 598.185 43.216C600.777 38.56 604.329 34.912 608.841 32.272C613.353 29.584 618.393 28.24 623.961 28.24C628.185 28.24 631.881 29.128 635.049 30.904C638.265 32.632 640.737 35.08 642.465 38.248C644.193 41.368 645.057 44.968 645.057 49.048C645.057 54.76 643.761 59.944 641.169 64.6C638.625 69.208 635.097 72.856 630.585 75.544C626.073 78.184 621.009 79.504 615.393 79.504ZM616.329 73.6C620.553 73.6 624.321 72.52 627.633 70.36C630.993 68.152 633.609 65.2 635.481 61.504C637.353 57.808 638.289 53.8 638.289 49.48C638.289 44.728 636.921 40.984 634.185 38.248C631.449 35.512 627.729 34.144 623.025 34.144C618.801 34.144 615.009 35.248 611.649 37.456C608.337 39.616 605.745 42.544 603.873 46.24C602.049 49.888 601.137 53.872 601.137 58.192C601.137 62.944 602.481 66.712 605.169 69.496C607.905 72.232 611.625 73.6 616.329 73.6Z" stroke="white" stroke-width="2" mask="url(#path-1-outside-1_1:33)" class="zWqxdmkt_42"></path>
<path d="M688.915 43.504C688.195 47.68 686.155 51.16 682.795 53.944C679.435 56.68 674.851 58.048 669.043 58.048H659.395L655.651 79H649.099L658.027 28.816H674.227C679.219 28.816 682.963 29.896 685.459 32.056C687.955 34.168 689.203 37 689.203 40.552C689.203 41.176 689.107 42.16 688.915 43.504ZM669.979 52.864C673.579 52.864 676.387 52.048 678.403 50.416C680.419 48.736 681.691 46.432 682.219 43.504C682.363 42.64 682.435 41.848 682.435 41.128C682.435 36.376 679.387 34 673.291 34H663.643L660.331 52.864H669.979Z" stroke="white" stroke-width="2" mask="url(#path-1-outside-1_1:33)" class="zWqxdmkt_43"></path>
<path d="M705.338 33.928L702.314 51.136H720.53L719.666 56.176H701.45L698.282 73.816H718.73L717.794 79H690.794L699.722 28.744H726.65L725.714 33.928H705.338Z" stroke="white" stroke-width="2" mask="url(#path-1-outside-1_1:33)" class="zWqxdmkt_44"></path>
<path d="M752.764 28.816C757.756 28.816 761.524 29.896 764.068 32.056C766.612 34.216 767.884 37.096 767.884 40.696C767.884 41.272 767.788 42.232 767.596 43.576C766.972 47.032 765.436 50.08 762.988 52.72C760.54 55.36 757.252 57.112 753.124 57.976L761.98 79H754.132L745.78 58.48H737.932L734.26 79H727.708L736.636 28.816H752.764ZM760.828 43.576C760.972 42.712 761.044 41.92 761.044 41.2C761.044 38.896 760.276 37.12 758.74 35.872C757.252 34.624 754.948 34 751.828 34H742.252L738.868 53.224H748.516C752.068 53.224 754.876 52.36 756.94 50.632C759.004 48.856 760.3 46.504 760.828 43.576Z" stroke="white" stroke-width="2" mask="url(#path-1-outside-1_1:33)" class="zWqxdmkt_45"></path>
<path d="M171.645 177.208L157.173 160.648L177.405 144.16H185.685L165.381 160.648L179.853 177.208H171.645Z" stroke="white" stroke-width="2" mask="url(#path-1-outside-1_1:33)" class="zWqxdmkt_46"></path>
<path d="M239.447 136.816L230.591 187H224.039L228.071 164.104H202.583L198.479 187H191.927L200.855 136.816H207.407L203.447 158.992H229.007L232.895 136.816H239.447Z" stroke="white" stroke-width="2" mask="url(#path-1-outside-1_1:33)" class="zWqxdmkt_47"></path>
<path d="M264.604 187.504C260.428 187.504 256.756 186.64 253.588 184.912C250.42 183.136 247.948 180.664 246.172 177.496C244.444 174.328 243.58 170.704 243.58 166.624C243.58 160.96 244.852 155.824 247.396 151.216C249.988 146.56 253.54 142.912 258.052 140.272C262.564 137.584 267.604 136.24 273.172 136.24C277.396 136.24 281.092 137.128 284.26 138.904C287.476 140.632 289.948 143.08 291.676 146.248C293.404 149.368 294.268 152.968 294.268 157.048C294.268 162.76 292.972 167.944 290.38 172.6C287.836 177.208 284.308 180.856 279.796 183.544C275.284 186.184 270.22 187.504 264.604 187.504ZM265.54 181.6C269.764 181.6 273.532 180.52 276.844 178.36C280.204 176.152 282.82 173.2 284.692 169.504C286.564 165.808 287.5 161.8 287.5 157.48C287.5 152.728 286.132 148.984 283.396 146.248C280.66 143.512 276.94 142.144 272.236 142.144C268.012 142.144 264.22 143.248 260.86 145.456C257.548 147.616 254.956 150.544 253.084 154.24C251.26 157.888 250.348 161.872 250.348 166.192C250.348 170.944 251.692 174.712 254.38 177.496C257.116 180.232 260.836 181.6 265.54 181.6Z" stroke="white" stroke-width="2" mask="url(#path-1-outside-1_1:33)" class="zWqxdmkt_48"></path>
<path d="M310.262 136.816L318.254 179.944L341.654 136.816H348.71L320.845 187H313.285L303.206 136.816H310.262Z" stroke="white" stroke-width="2" mask="url(#path-1-outside-1_1:33)" class="zWqxdmkt_49"></path>
<path d="M364.102 187.504C359.446 187.504 355.654 186.4 352.726 184.192C349.846 181.936 348.406 178.936 348.406 175.192C348.406 174.472 348.43 173.944 348.478 173.608H354.958C354.814 175.96 355.534 177.976 357.118 179.656C358.702 181.336 361.126 182.176 364.39 182.176C367.654 182.176 370.246 181.432 372.166 179.944C374.086 178.456 375.046 176.368 375.046 173.68C375.046 172.048 374.566 170.68 373.606 169.576C372.694 168.424 371.542 167.488 370.15 166.768C368.806 166 366.958 165.16 364.606 164.248C361.726 163.096 359.398 162.016 357.622 161.008C355.894 160 354.43 158.632 353.23 156.904C352.03 155.176 351.478 152.992 351.574 150.352C351.574 147.568 352.318 145.096 353.806 142.936C355.294 140.776 357.334 139.12 359.926 137.968C362.566 136.768 365.566 136.168 368.926 136.168C372.19 136.168 374.998 136.72 377.35 137.824C379.75 138.928 381.55 140.464 382.75 142.432C383.95 144.4 384.478 146.608 384.334 149.056H377.494C377.59 147.808 377.302 146.608 376.63 145.456C376.006 144.304 374.998 143.368 373.606 142.648C372.262 141.928 370.582 141.568 368.566 141.568C365.446 141.568 362.926 142.312 361.006 143.8C359.134 145.24 358.198 147.232 358.198 149.776C358.198 151.264 358.63 152.56 359.494 153.664C360.406 154.72 361.534 155.632 362.878 156.4C364.222 157.12 366.07 157.984 368.422 158.992C371.254 160.192 373.558 161.32 375.334 162.376C377.158 163.384 378.694 164.752 379.942 166.48C381.19 168.208 381.814 170.368 381.814 172.96C381.814 175.744 381.094 178.24 379.654 180.448C378.214 182.608 376.15 184.336 373.462 185.632C370.774 186.88 367.654 187.504 364.102 187.504Z" stroke="white" stroke-width="2" mask="url(#path-1-outside-1_1:33)" class="zWqxdmkt_50"></path>
<path d="M403.416 141.928L400.392 159.136H418.608L417.744 164.176H399.528L396.36 181.816H416.808L415.872 187H388.872L397.8 136.744H424.728L423.792 141.928H403.416Z" stroke="white" stroke-width="2" mask="url(#path-1-outside-1_1:33)" class="zWqxdmkt_51"></path>
<path d="M465.602 151.504C464.882 155.68 462.842 159.16 459.482 161.944C456.122 164.68 451.538 166.048 445.73 166.048H436.082L432.338 187H425.786L434.714 136.816H450.914C455.906 136.816 459.65 137.896 462.146 140.056C464.642 142.168 465.89 145 465.89 148.552C465.89 149.176 465.794 150.16 465.602 151.504ZM446.666 160.864C450.266 160.864 453.074 160.048 455.09 158.416C457.106 156.736 458.378 154.432 458.906 151.504C459.05 150.64 459.122 149.848 459.122 149.128C459.122 144.376 456.074 142 449.978 142H440.33L437.018 160.864H446.666Z" stroke="white" stroke-width="2" mask="url(#path-1-outside-1_1:33)" class="zWqxdmkt_52"></path>
<path d="M466.545 181.744C473.505 176.8 479.001 172.792 483.033 169.72C487.065 166.6 490.545 163.36 493.473 160C496.449 156.592 498.225 153.28 498.801 150.064C498.945 149.2 499.017 148.336 499.017 147.472C499.017 145.216 498.369 143.44 497.073 142.144C495.777 140.848 493.713 140.2 490.881 140.2C487.665 140.2 484.977 141.232 482.817 143.296C480.657 145.312 479.193 148.024 478.425 151.432H472.089C473.241 146.056 475.617 141.904 479.217 138.976C482.817 136.048 487.041 134.584 491.889 134.584C496.209 134.584 499.569 135.64 501.969 137.752C504.417 139.864 505.641 142.792 505.641 146.536C505.641 147.688 505.545 148.768 505.353 149.776C504.681 153.616 502.809 157.408 499.737 161.152C496.713 164.896 493.425 168.184 489.873 171.016C486.321 173.848 481.881 177.16 476.553 180.952H501.321L500.385 186.424H465.681L466.545 181.744Z" stroke="white" stroke-width="2" mask="url(#path-1-outside-1_1:33)" class="zWqxdmkt_53"></path>
<path d="M514.007 141.928L515.087 135.952H528.623L519.623 187H512.999L520.919 141.928H514.007Z" stroke="white" stroke-width="2" mask="url(#path-1-outside-1_1:33)" class="zWqxdmkt_54"></path>
<path d="M568.39 119.176L534.55 199.24H528.07L561.838 119.176H568.39Z" stroke="white" stroke-width="2" mask="url(#path-1-outside-1_1:33)" class="zWqxdmkt_55"></path>
<path d="M575.056 144.16H583.264L597.736 160.648L577.504 177.208H569.224L589.528 160.648L575.056 144.16Z" stroke="white" stroke-width="2" mask="url(#path-1-outside-1_1:33)" class="zWqxdmkt_56"></path>
<style data-made-with="vivus-instant">.zWqxdmkt_0{stroke-dasharray:1886 1888;stroke-dashoffset:1887;animation:zWqxdmkt_draw 2000ms linear 0ms forwards;}.zWqxdmkt_1{stroke-dasharray:194 196;stroke-dashoffset:195;animation:zWqxdmkt_draw 2000ms linear 17ms forwards;}.zWqxdmkt_2{stroke-dasharray:274 276;stroke-dashoffset:275;animation:zWqxdmkt_draw 2000ms linear 35ms forwards;}.zWqxdmkt_3{stroke-dasharray:284 286;stroke-dashoffset:285;animation:zWqxdmkt_draw 2000ms linear 53ms forwards;}.zWqxdmkt_4{stroke-dasharray:299 301;stroke-dashoffset:300;animation:zWqxdmkt_draw 2000ms linear 71ms forwards;}.zWqxdmkt_5{stroke-dasharray:170 172;stroke-dashoffset:171;animation:zWqxdmkt_draw 2000ms linear 89ms forwards;}.zWqxdmkt_6{stroke-dasharray:234 236;stroke-dashoffset:235;animation:zWqxdmkt_draw 2000ms linear 107ms forwards;}.zWqxdmkt_7{stroke-dasharray:299 301;stroke-dashoffset:300;animation:zWqxdmkt_draw 2000ms linear 125ms forwards;}.zWqxdmkt_8{stroke-dasharray:289 291;stroke-dashoffset:290;animation:zWqxdmkt_draw 2000ms linear 142ms forwards;}.zWqxdmkt_9{stroke-dasharray:289 291;stroke-dashoffset:290;animation:zWqxdmkt_draw 2000ms linear 160ms forwards;}.zWqxdmkt_10{stroke-dasharray:234 236;stroke-dashoffset:235;animation:zWqxdmkt_draw 2000ms linear 178ms forwards;}.zWqxdmkt_11{stroke-dasharray:224 226;stroke-dashoffset:225;animation:zWqxdmkt_draw 2000ms linear 196ms forwards;}.zWqxdmkt_12{stroke-dasharray:234 236;stroke-dashoffset:235;animation:zWqxdmkt_draw 2000ms linear 214ms forwards;}.zWqxdmkt_13{stroke-dasharray:151 153;stroke-dashoffset:152;animation:zWqxdmkt_draw 2000ms linear 232ms forwards;}.zWqxdmkt_14{stroke-dasharray:284 286;stroke-dashoffset:285;animation:zWqxdmkt_draw 2000ms linear 250ms forwards;}.zWqxdmkt_15{stroke-dasharray:228 230;stroke-dashoffset:229;animation:zWqxdmkt_draw 2000ms linear 267ms forwards;}.zWqxdmkt_16{stroke-dasharray:234 236;stroke-dashoffset:235;animation:zWqxdmkt_draw 2000ms linear 285ms forwards;}.zWqxdmkt_17{stroke-dasharray:274 276;stroke-dashoffset:275;animation:zWqxdmkt_draw 2000ms linear 303ms forwards;}.zWqxdmkt_18{stroke-dasharray:113 115;stroke-dashoffset:114;animation:zWqxdmkt_draw 2000ms linear 321ms forwards;}.zWqxdmkt_19{stroke-dasharray:271 273;stroke-dashoffset:272;animation:zWqxdmkt_draw 2000ms linear 339ms forwards;}.zWqxdmkt_20{stroke-dasharray:284 286;stroke-dashoffset:285;animation:zWqxdmkt_draw 2000ms linear 357ms forwards;}.zWqxdmkt_21{stroke-dasharray:224 226;stroke-dashoffset:225;animation:zWqxdmkt_draw 2000ms linear 375ms forwards;}.zWqxdmkt_22{stroke-dasharray:241 243;stroke-dashoffset:242;animation:zWqxdmkt_draw 2000ms linear 392ms forwards;}.zWqxdmkt_23{stroke-dasharray:234 236;stroke-dashoffset:235;animation:zWqxdmkt_draw 2000ms linear 410ms forwards;}.zWqxdmkt_24{stroke-dasharray:228 230;stroke-dashoffset:229;animation:zWqxdmkt_draw 2000ms linear 428ms forwards;}.zWqxdmkt_25{stroke-dasharray:252 254;stroke-dashoffset:253;animation:zWqxdmkt_draw 2000ms linear 446ms forwards;}.zWqxdmkt_26{stroke-dasharray:131 133;stroke-dashoffset:132;animation:zWqxdmkt_draw 2000ms linear 464ms forwards;}.zWqxdmkt_27{stroke-dasharray:187 189;stroke-dashoffset:188;animation:zWqxdmkt_draw 2000ms linear 482ms forwards;}.zWqxdmkt_28{stroke-dasharray:113 115;stroke-dashoffset:114;animation:zWqxdmkt_draw 2000ms linear 500ms forwards;}.zWqxdmkt_29{stroke-dasharray:194 196;stroke-dashoffset:195;animation:zWqxdmkt_draw 2000ms linear 517ms forwards;}.zWqxdmkt_30{stroke-dasharray:274 276;stroke-dashoffset:275;animation:zWqxdmkt_draw 2000ms linear 535ms forwards;}.zWqxdmkt_31{stroke-dasharray:284 286;stroke-dashoffset:285;animation:zWqxdmkt_draw 2000ms linear 553ms forwards;}.zWqxdmkt_32{stroke-dasharray:299 301;stroke-dashoffset:300;animation:zWqxdmkt_draw 2000ms linear 571ms forwards;}.zWqxdmkt_33{stroke-dasharray:170 172;stroke-dashoffset:171;animation:zWqxdmkt_draw 2000ms linear 589ms forwards;}.zWqxdmkt_34{stroke-dasharray:234 236;stroke-dashoffset:235;animation:zWqxdmkt_draw 2000ms linear 607ms forwards;}.zWqxdmkt_35{stroke-dasharray:299 301;stroke-dashoffset:300;animation:zWqxdmkt_draw 2000ms linear 625ms forwards;}.zWqxdmkt_36{stroke-dasharray:289 291;stroke-dashoffset:290;animation:zWqxdmkt_draw 2000ms linear 642ms forwards;}.zWqxdmkt_37{stroke-dasharray:289 291;stroke-dashoffset:290;animation:zWqxdmkt_draw 2000ms linear 660ms forwards;}.zWqxdmkt_38{stroke-dasharray:234 236;stroke-dashoffset:235;animation:zWqxdmkt_draw 2000ms linear 678ms forwards;}.zWqxdmkt_39{stroke-dasharray:224 226;stroke-dashoffset:225;animation:zWqxdmkt_draw 2000ms linear 696ms forwards;}.zWqxdmkt_40{stroke-dasharray:234 236;stroke-dashoffset:235;animation:zWqxdmkt_draw 2000ms linear 714ms forwards;}.zWqxdmkt_41{stroke-dasharray:151 153;stroke-dashoffset:152;animation:zWqxdmkt_draw 2000ms linear 732ms forwards;}.zWqxdmkt_42{stroke-dasharray:284 286;stroke-dashoffset:285;animation:zWqxdmkt_draw 2000ms linear 750ms forwards;}.zWqxdmkt_43{stroke-dasharray:228 230;stroke-dashoffset:229;animation:zWqxdmkt_draw 2000ms linear 767ms forwards;}.zWqxdmkt_44{stroke-dasharray:234 236;stroke-dashoffset:235;animation:zWqxdmkt_draw 2000ms linear 785ms forwards;}.zWqxdmkt_45{stroke-dasharray:274 276;stroke-dashoffset:275;animation:zWqxdmkt_draw 2000ms linear 803ms forwards;}.zWqxdmkt_46{stroke-dasharray:113 115;stroke-dashoffset:114;animation:zWqxdmkt_draw 2000ms linear 821ms forwards;}.zWqxdmkt_47{stroke-dasharray:271 273;stroke-dashoffset:272;animation:zWqxdmkt_draw 2000ms linear 839ms forwards;}.zWqxdmkt_48{stroke-dasharray:284 286;stroke-dashoffset:285;animation:zWqxdmkt_draw 2000ms linear 857ms forwards;}.zWqxdmkt_49{stroke-dasharray:224 226;stroke-dashoffset:225;animation:zWqxdmkt_draw 2000ms linear 875ms forwards;}.zWqxdmkt_50{stroke-dasharray:241 243;stroke-dashoffset:242;animation:zWqxdmkt_draw 2000ms linear 892ms forwards;}.zWqxdmkt_51{stroke-dasharray:234 236;stroke-dashoffset:235;animation:zWqxdmkt_draw 2000ms linear 910ms forwards;}.zWqxdmkt_52{stroke-dasharray:228 230;stroke-dashoffset:229;animation:zWqxdmkt_draw 2000ms linear 928ms forwards;}.zWqxdmkt_53{stroke-dasharray:252 254;stroke-dashoffset:253;animation:zWqxdmkt_draw 2000ms linear 946ms forwards;}.zWqxdmkt_54{stroke-dasharray:131 133;stroke-dashoffset:132;animation:zWqxdmkt_draw 2000ms linear 964ms forwards;}.zWqxdmkt_55{stroke-dasharray:187 189;stroke-dashoffset:188;animation:zWqxdmkt_draw 2000ms linear 982ms forwards;}.zWqxdmkt_56{stroke-dasharray:113 115;stroke-dashoffset:114;animation:zWqxdmkt_draw 2000ms linear 1000ms forwards;}@keyframes zWqxdmkt_draw{100%{stroke-dashoffset:0;}}@keyframes zWqxdmkt_fade{0%{stroke-opacity:1;}94.44444444444444%{stroke-opacity:1;}100%{stroke-opacity:0;}}</style></svg>
